<svg xmlns="http://www.w3.org/2000/svg" xmlns:xlink="http://www.w3.org/1999/xlink" width="60" height="60" preserveAspectRatio="xMidYMid meet" viewBox="0 0 15 15" style="-ms-transform: rotate(360deg); -webkit-transform: rotate(360deg); transform: rotate(360deg);"><g fill="none"><path d="M7.5 5a2.5 2.5 0 1 0 0 5a2.5 2.5 0 0 0 0-5z" fill="#626262"/><path fill-rule="evenodd" clip-rule="evenodd" d="M4.5 0A4.5 4.5 0 0 0 0 4.5v6A4.5 4.5 0 0 0 4.5 15h6a4.5 4.5 0 0 0 4.5-4.5v-6A4.5 4.5 0 0 0 10.5 0h-6zM4 7.5a3.5 3.5 0 1 1 7 0a3.5 3.5 0 0 1-7 0zM11 4h1V3h-1v1z" fill="#626262"/></g><rect x="0" y="0" width="60" height="60" fill="rgba(0, 0, 0, 0)" /></svg>